# xmcd CD Database Entry
#
# Track frame offsets:
# 150
# 20461
# 39462
# 55953
# 72336
# 90097
# 108734
# 125772
# 144649
# 163082
# 185255
#
# Disc length: 2849 seconds
#
# Revision: 3
# Processed by: cddbd v1.4PL0 Copyright (c) Steve Scherf et al.
# Submitted via: tcd 2.0b
#
DISCID=970b1f0b
DTITLE=Marie Bellet - What I Wanted To Say
DYEAR=1900
DGENRE=
TTITLE0=One Heroic Moment
TTITLE1=If Only
TTITLE2=Don't You Think I Count?
TTITLE3=You Don't Know The Half Of It
TTITLE4=Here I Am
TTITLE5=Thy Will Be Done
TTITLE6=What Difference Does It Make?
TTITLE7=What I Wanted To Say
TTITLE8=Your Own Little World
TTITLE9=Without You I Can Do Nothing
TTITLE10=Will You, Too, Go Away?
EXTD=
EXTT0=
EXTT1=
EXTT2=
EXTT3=
EXTT4=
EXTT5=
EXTT6=
EXTT7=
EXTT8=
EXTT9=
EXTT10=
PLAYORDER=
